Results
version=1
nRows=12
nColumns=24
inDegrees=yes
endheader
time	pelvis_tilt	pelvis_list	pelvis_rotation	pelvis_tx	pelvis_ty	pelvis_tz	hip_flexion_r	hip_adduction_r	hip_rotation_r	knee_angle_r	ankle_angle_r	subtalar_angle_r	mtp_angle_r	hip_flexion_l	hip_adduction_l	hip_rotation_l	knee_angle_l	ankle_angle_l	subtalar_angle_l	mtp_angle_l	lumbar_extension	lumbar_bending	lumbar_rotation
      0.84133333	     -4.45621391	     -2.28948921	     -2.32347282	     -0.40389462	      0.99893912	      0.31889185	     17.77438418	      5.52509129	      0.65124202	    -22.40376423	      9.61125948	    -10.63929296	      0.80975713	     16.83881486	     -2.75109997	     -3.78649110	    -69.33690553	    -10.24428817	    -12.57237224	      5.21512961	     -7.76142932	     10.13116922	     -0.05422249
      0.84550000	     -4.40184509	     -2.17354142	     -2.30085668	     -0.39896975	      1.00010055	      0.31935677	     17.18576920	      5.42308393	      0.71427834	    -21.95110470	      9.64889017	    -10.67655926	      0.81708528	     17.39721606	     -2.69529771	     -3.90743557	    -69.26000659	     -9.65017176	    -12.74087925	      5.07046391	     -7.86260909	      9.90521538	      0.22352198
      0.84966667	     -4.37027508	     -2.05671465	     -2.28795716	     -0.39405723	      1.00117478	      0.31981800	     16.62717228	      5.32046283	      0.77499418	    -21.50860247	      9.70112834	    -10.68190938	      0.82644056	     17.97240721	     -2.63820817	     -4.03192032	    -69.13679319	     -9.04396314	    -12.86772215	      4.92011809	     -7.93167418	      9.68971183	      0.47874057
      0.85383333	     -4.32126796	     -1.93173418	     -2.27991096	     -0.38914076	      1.00226244	      0.32027396	     16.04597050	      5.20763509	      0.83411273	    -21.05693873	      9.74906737	    -10.68190786	      0.83515327	     18.51251574	     -2.56799752	     -4.15867588	    -68.94627041	     -8.45646477	    -12.98841242	      4.77364911	     -8.02218466	      9.46453654	      0.72595874
      0.85800000	     -4.28659601	     -1.78866269	     -2.28054969	     -0.38421516	      1.00330313	      0.32072539	     15.48386646	      5.07530737	      0.89307360	    -20.61441520	      9.80570381	    -10.66536415	      0.84310753	     19.05261964	     -2.47541375	     -4.29188860	    -68.69319551	     -7.87733474	    -13.07655724	      4.64068697	     -8.09053251	      9.21663733	      0.96609854
      0.86216667	     -4.23929949	     -1.64019619	     -2.28471283	     -0.37931328	      1.00432791	      0.32115550	     14.91398566	      4.93284696	      0.94310759	    -20.17903674	      9.84199114	    -10.62585355	      0.84783190	     19.56703408	     -2.36833229	     -4.41895657	    -68.38299349	     -7.29735728	    -13.18086296	      4.55417605	     -8.18763786	      8.97969760	      1.15072519
      0.86633333	     -4.17240134	     -1.48722543	     -2.29625579	     -0.37436804	      1.00538084	      0.32160190	     14.30752869	      4.78681872	      1.00403223	    -19.71584084	      9.89539400	    -10.59167751	      0.85217774	     20.03671471	     -2.25968221	     -4.55464564	    -68.00109177	     -6.73575192	    -13.20038084	      4.45925323	     -8.29641876	      8.72064081	      1.39993535
      0.87050000	     -4.07724118	     -1.33598142	     -2.31277294	     -0.36940418	      1.00642965	      0.32204478	     13.66704611	      4.63873399	      1.05404774	    -19.24705852	      9.98097707	    -10.54432315	      0.85757815	     20.45847183	     -2.15519168	     -4.69996602	    -67.56127986	     -6.19342170	    -13.18363719	      4.33679138	     -8.41663658	      8.46125056	      1.68949116
      0.87466667	     -4.03411631	     -1.17044841	     -2.33225754	     -0.36446535	      1.00735731	      0.32246442	     13.09754567	      4.47400322	      1.09926317	    -18.80575345	     10.04863337	    -10.48119648	      0.86131250	     20.92754095	     -2.02616391	     -4.83236432	    -67.07291086	     -5.64545297	    -13.15521291	      4.21922895	     -8.49001275	      8.19401103	      1.93381707
      0.87883333	     -3.98096960	     -1.01130369	     -2.35024356	     -0.35953445	      1.00825270	      0.32287313	     12.51735601	      4.31268582	      1.13708769	    -18.36400207	     10.11265568	    -10.40607342	      0.86337997	     21.37293814	     -1.89883124	     -4.95212578	    -66.53440845	     -5.09792705	    -13.08796759	      4.11631944	     -8.58677591	      7.94368313	      2.15649027
      0.88300000	     -3.92223733	     -0.85171676	     -2.37042034	     -0.35458093	      1.00911603	      0.32327048	     11.93122672	      4.14702830	      1.15489906	    -17.92345757	     10.19629091	    -10.31553490	      0.86428752	     21.79391299	     -1.77191199	     -5.07781888	    -65.93929991	     -4.56724099	    -12.99248633	      4.01215344	     -8.67116674	      7.68418040	      2.38774004
      0.88716667	     -3.87995321	     -0.67141520	     -2.38994023	     -0.34963745	      1.00992980	      0.32363874	     11.37368388	      3.95368081	      1.15596715	    -17.49971062	     10.22606268	    -10.21622466	      0.86337375	     22.21552737	     -1.60937423	     -5.18601031	    -65.27982740	     -4.04483070	    -12.91329267	      3.95877568	     -8.73940964	      7.42091447	      2.52991117
